# Blender v2.79 (sub 0) OBJ File: 'final_scene.blend'
# www.blender.org
mtllib test_cube.mtl
o Cube
v -0.422795 0.368275 -0.099903
v -0.286325 0.604648 0.372844
v -0.186422 0.777685 -0.372844
v -0.049952 1.014059 0.099903
v 0.049952 0.095334 -0.099903
v 0.186422 0.331708 0.372844
v 0.286325 0.504745 -0.372844
v 0.422795 0.741118 0.099903
v -0.186422 0.777685 -0.372844
v -0.422795 0.368275 -0.099903
v -0.286325 0.604648 0.372844
v -0.049952 1.014059 0.099903
v 0.286325 0.504745 -0.372844
v 0.422795 0.741118 0.099903
v 0.049952 0.095334 -0.099903
v 0.186422 0.331708 0.372844
vt 0.000000 0.000000
vt 1.000000 0.000000
vt 1.000000 1.000000
vt 0.000000 1.000000
vt 0.000000 0.000000
vt 1.000000 0.000000
vt 1.000000 1.000000
vt 0.000000 1.000000
vt 0.000000 0.000000
vt 1.000000 0.000000
vt 1.000000 1.000000
vt 0.000000 1.000000
vt 0.000000 0.000000
vt 1.000000 0.000000
vt 1.000000 1.000000
vt 0.000000 1.000000
vt 1.000000 1.000000
vt 0.000000 1.000000
vt 0.000000 0.000000
vt 1.000000 0.000000
vt 0.000087 0.250043
vt 0.250043 0.250043
vt 0.250043 0.500000
vt 0.000087 0.500000
vt 0.250043 0.749957
vt 0.500000 0.500000
vt 0.500000 0.749957
vt 0.749957 0.500000
vt 0.500000 0.250043
vt 0.749957 0.250043
vt 0.500000 0.000087
vt 0.250043 0.000087
vt 0.500000 0.999913
vt 0.250043 0.999913
vn 0.8660 -0.5000 0.0000
vn -0.4330 -0.7500 0.5000
vn -0.8660 0.5000 0.0000
vn 0.4330 0.7500 -0.5000
vn 0.2500 0.4330 0.8660
vn -0.2500 -0.4330 -0.8660
usemtl Material
s off
f 1/1/1 3/2/1 4/3/1 2/4/1
f 3/5/2 7/6/2 8/7/2 4/8/2
f 7/9/3 5/10/3 6/11/3 8/12/3
f 5/13/4 1/14/4 2/15/4 6/16/4
f 3/5/5 1/14/5 5/17/5 7/18/5
f 8/19/6 6/20/6 2/15/6 4/8/6
f 10/21/3 11/22/3 12/23/3 9/24/3
f 9/25/4 12/23/4 14/26/4 13/27/4
f 13/28/1 14/26/1 16/29/1 15/30/1
f 15/31/2 16/29/2 11/22/2 10/32/2
f 9/25/6 13/27/6 15/33/6 10/34/6
f 14/26/5 12/23/5 11/22/5 16/29/5
